<svg id="svg" version="1.1" width="500" height="500" xmlns="http://www.w3.org/2000/svg" xmlns:xlink="http://www.w3.org/1999/xlink" style="display: block;"><g id="svgg"><path id="path0" d="M118.522 216.123 C 115.428 217.654,108.800 224.668,108.800 226.410 C 108.800 228.548,115.177 234.560,119.791 236.773 C 124.419 238.993,124.996 238.830,123.233 235.800 C 120.522 231.140,120.700 221.550,123.576 217.312 L 125.552 214.400 123.776 214.401 C 122.799 214.401,120.435 215.176,118.522 216.123 M278.023 218.119 C 280.542 222.857,280.700 229.979,278.400 235.048 L 276.835 238.497 278.617 237.946 C 283.948 236.298,288.404 232.844,291.451 228.000 C 293.741 224.357,283.725 214.400,277.770 214.400 L 276.045 214.400 278.023 218.119 M142.026 219.958 C 141.323 221.096,142.220 222.400,143.706 222.400 C 144.407 222.400,144.808 221.838,144.659 221.066 C 144.347 219.460,142.750 218.787,142.026 219.958 M264.800 220.800 C 264.800 221.680,265.280 222.400,265.867 222.400 C 267.371 222.400,267.961 221.630,267.459 220.322 C 266.806 218.620,264.800 218.981,264.800 220.800 M156.657 228.002 C 156.516 231.963,156.466 235.203,156.547 235.202 C 157.041 235.196,164.800 230.089,164.800 229.770 C 164.800 229.108,158.034 220.878,157.457 220.838 C 157.158 220.817,156.798 224.041,156.657 228.002 M239.871 225.417 L 236.286 230.034 239.943 232.407 C 241.954 233.712,243.846 234.896,244.147 235.039 C 244.447 235.181,244.627 232.036,244.547 228.049 C 244.373 219.482,244.448 219.524,239.871 225.417 " stroke="none" fill="#fefefe" fill-rule="evenodd"></path><path id="path1" d="M228.800 105.520 C 226.820 105.784,232.011 106.000,240.336 106.000 C 248.660 106.000,254.420 105.773,253.136 105.495 C 250.207 104.861,233.614 104.878,228.800 105.520 M208.000 109.261 C 202.060 110.802,193.960 112.621,190.000 113.305 C 183.556 114.417,180.647 115.200,182.962 115.200 C 185.201 115.200,198.696 112.552,204.000 111.072 C 207.300 110.151,213.060 108.757,216.800 107.975 C 220.540 107.193,222.520 106.532,221.200 106.506 C 219.880 106.480,213.940 107.720,208.000 109.261 M260.400 107.612 C 270.579 110.245,279.995 115.630,298.836 129.592 C 309.184 137.259,312.839 144.953,315.187 164.000 L 315.926 170.000 315.574 163.600 C 314.654 146.850,310.164 137.106,299.785 129.336 C 279.881 114.434,264.717 106.132,258.055 106.488 C 257.145 106.537,258.200 107.043,260.400 107.612 M135.600 109.830 C 131.020 111.162,127.558 111.471,116.600 111.529 C 109.230 111.568,103.200 111.836,103.200 112.125 C 103.200 113.607,129.334 112.337,136.223 110.521 L 143.245 108.670 149.354 111.212 C 159.699 115.519,162.058 115.993,172.400 115.845 L 182.000 115.707 171.200 115.212 C 160.070 114.702,156.426 113.845,148.627 109.906 C 144.204 107.672,143.048 107.666,135.600 109.830 M102.509 120.057 C 102.295 124.107,99.851 129.494,96.677 132.918 C 93.710 136.117,90.386 141.447,90.410 142.968 C 90.415 143.316,91.334 141.999,92.452 140.043 C 93.571 138.087,95.857 134.998,97.533 133.180 C 100.770 129.669,103.547 122.840,102.967 119.819 C 102.643 118.131,102.610 118.149,102.509 120.057 M89.333 144.533 C 89.040 144.827,88.823 145.817,88.851 146.733 C 88.897 148.266,88.963 148.246,89.668 146.484 C 90.451 144.525,90.289 143.578,89.333 144.533 M87.747 150.140 C 86.745 153.812,86.261 156.780,85.185 165.860 C 83.975 176.079,83.783 178.886,84.331 178.333 C 84.512 178.150,85.244 172.960,85.956 166.800 C 86.668 160.640,87.623 154.214,88.078 152.519 C 88.533 150.825,88.734 149.268,88.526 149.059 C 88.317 148.850,87.967 149.337,87.747 150.140 M316.013 172.067 C 316.049 175.096,319.122 194.582,319.638 195.057 C 319.964 195.356,320.018 194.486,319.760 193.125 C 319.501 191.763,318.698 186.363,317.975 181.125 C 316.804 172.650,315.975 168.820,316.013 172.067 M82.872 184.600 C 82.569 187.570,82.151 190.900,81.943 192.000 C 81.591 193.852,81.619 193.873,82.325 192.284 C 83.166 190.388,84.439 179.200,83.814 179.200 C 83.598 179.200,83.174 181.630,82.872 184.600 M133.200 186.538 C 128.800 186.933,124.300 187.591,123.200 188.002 C 121.470 188.647,121.578 188.696,124.000 188.366 C 149.193 184.934,170.724 186.089,176.055 191.161 C 182.357 197.156,181.348 202.313,173.586 203.780 L 168.400 204.760 173.200 204.418 C 179.261 203.986,181.181 202.101,180.538 197.212 C 179.220 187.168,164.129 183.766,133.200 186.538 M241.200 186.302 C 238.201 186.613,241.737 186.835,250.627 186.894 C 258.452 186.946,264.752 186.898,264.627 186.788 C 264.016 186.252,245.403 185.865,241.200 186.302 M225.201 190.600 C 218.460 196.706,219.508 204.931,227.000 204.712 L 230.000 204.625 226.458 203.930 C 217.033 202.081,222.287 188.719,232.803 187.795 L 236.400 187.480 232.677 187.340 C 229.331 187.214,228.575 187.544,225.201 190.600 M268.867 187.490 C 269.050 187.649,271.360 187.975,274.000 188.213 C 276.898 188.476,278.166 188.383,277.200 187.980 C 275.660 187.337,268.185 186.897,268.867 187.490 M112.115 190.866 C 104.970 193.253,99.795 196.116,95.800 199.890 C 90.504 204.894,92.568 208.994,99.321 206.884 C 104.591 205.237,107.466 203.999,107.030 203.563 C 106.815 203.348,105.055 203.890,103.119 204.768 C 97.937 207.120,93.600 206.980,93.600 204.462 C 93.600 200.549,103.635 194.150,115.168 190.709 C 118.486 189.719,120.480 188.907,119.600 188.904 C 118.720 188.902,115.352 189.785,112.115 190.866 M284.800 190.494 C 300.886 194.775,315.942 207.187,304.400 206.652 L 301.200 206.503 303.784 207.363 C 308.757 209.017,310.471 205.042,306.600 200.833 C 302.094 195.932,286.186 188.667,280.359 188.849 C 279.501 188.875,281.500 189.616,284.800 190.494 M80.507 197.509 C 80.199 199.436,80.116 201.182,80.322 201.389 C 80.859 201.926,81.830 196.290,81.415 195.045 C 81.224 194.472,80.816 195.581,80.507 197.509 M320.174 197.600 C 320.166 198.700,320.448 200.500,320.800 201.600 C 321.661 204.289,321.661 201.384,320.800 198.000 C 320.251 195.844,320.188 195.804,320.174 197.600 M116.633 200.656 C 115.881 200.955,120.314 201.200,126.483 201.200 C 132.652 201.200,136.867 200.966,135.850 200.680 C 133.383 199.986,118.364 199.968,116.633 200.656 M266.553 200.680 C 265.537 200.966,269.213 201.200,274.723 201.200 C 280.232 201.200,284.124 200.955,283.370 200.656 C 281.638 199.969,269.014 199.986,266.553 200.680 M108.800 202.390 C 107.983 202.911,108.621 202.998,110.800 202.664 C 114.755 202.058,115.428 201.596,112.333 201.612 C 111.050 201.619,109.460 201.969,108.800 202.390 M138.467 201.889 C 138.650 202.048,140.960 202.389,143.600 202.648 C 146.649 202.947,147.816 202.862,146.800 202.416 C 145.286 201.750,137.758 201.275,138.467 201.889 M256.400 202.392 C 255.404 202.815,256.462 202.903,259.200 202.624 C 261.620 202.377,263.750 202.046,263.933 201.888 C 264.622 201.293,257.933 201.741,256.400 202.392 M288.800 202.417 C 290.780 202.762,294.161 203.809,296.313 204.743 C 298.466 205.676,300.360 206.307,300.523 206.144 C 301.246 205.420,290.516 201.605,288.000 201.692 C 285.348 201.783,285.390 201.821,288.800 202.417 M78.836 206.036 C 78.530 208.077,78.444 209.910,78.644 210.110 C 78.844 210.310,79.258 208.804,79.564 206.764 C 79.870 204.723,79.956 202.890,79.756 202.690 C 79.556 202.490,79.142 203.996,78.836 206.036 M149.200 203.580 C 150.742 204.304,159.286 205.366,158.646 204.754 C 158.291 204.414,155.840 203.927,153.200 203.671 C 150.560 203.415,148.760 203.374,149.200 203.580 M248.546 203.721 C 248.259 204.007,243.969 204.492,239.012 204.798 C 230.009 205.354,230.007 205.354,236.800 205.440 C 243.247 205.521,257.068 203.509,251.533 203.295 C 250.177 203.243,248.832 203.434,248.546 203.721 M322.188 210.000 C 322.428 213.520,322.753 216.550,322.912 216.733 C 323.481 217.392,323.026 207.556,322.397 205.600 C 322.026 204.446,321.937 206.308,322.188 210.000 M163.809 205.366 C 164.804 205.557,166.244 205.550,167.009 205.350 C 167.774 205.149,166.960 204.993,165.200 205.002 C 163.440 205.011,162.814 205.174,163.809 205.366 M53.998 209.042 C 47.098 215.942,47.130 234.490,54.071 251.600 C 55.678 255.560,57.879 261.843,58.962 265.562 C 62.273 276.924,65.893 282.435,72.168 285.670 C 75.897 287.592,76.013 287.584,75.937 285.400 C 75.902 284.410,75.692 284.050,75.470 284.600 C 73.217 290.184,63.535 278.233,59.687 265.117 C 58.512 261.111,56.296 254.860,54.763 251.225 C 46.960 232.723,48.527 208.740,57.600 207.806 C 60.393 207.518,60.906 211.894,58.375 214.425 C 56.667 216.133,56.666 216.155,58.220 217.872 C 59.466 219.249,59.963 221.631,60.671 229.605 C 61.160 235.108,62.159 241.408,62.892 243.605 C 63.624 245.802,64.475 250.120,64.783 253.200 L 65.341 258.800 65.471 254.175 C 65.548 251.396,64.984 247.720,64.057 244.968 C 63.208 242.448,62.076 235.709,61.541 229.993 C 60.785 221.911,60.236 219.230,59.072 217.935 C 57.607 216.306,57.610 216.239,59.188 214.811 C 61.974 212.290,60.974 206.400,57.760 206.400 C 57.144 206.400,55.451 207.589,53.998 209.042 M341.333 206.933 C 340.240 208.026,340.773 214.218,342.000 214.689 C 343.581 215.296,343.524 216.786,341.873 217.994 C 340.842 218.748,340.393 221.101,339.859 228.550 C 339.481 233.823,338.497 240.569,337.673 243.541 C 336.849 246.514,336.477 248.643,336.846 248.273 C 338.277 246.839,340.086 237.623,340.512 229.600 C 340.854 223.155,341.312 220.696,342.479 219.032 C 344.310 216.423,344.420 214.732,342.800 214.111 C 341.389 213.569,341.136 208.381,342.480 207.551 C 343.764 206.757,347.320 209.677,349.450 213.275 C 350.702 215.390,351.121 215.754,350.745 214.400 C 349.350 209.373,343.520 204.747,341.333 206.933 M118.146 208.175 C 112.742 209.607,98.400 225.276,98.400 229.748 C 98.400 231.422,100.076 232.800,102.113 232.800 C 103.187 232.800,105.610 234.449,108.153 236.911 C 120.491 248.855,146.317 250.942,160.995 241.181 C 165.473 238.204,167.479 237.378,171.092 237.024 C 175.819 236.562,177.600 235.717,177.600 233.939 C 177.600 232.260,161.280 214.164,158.290 212.528 C 155.883 211.211,155.975 211.379,159.167 214.128 C 161.129 215.818,163.649 218.263,164.767 219.563 C 165.885 220.862,169.074 224.384,171.854 227.388 C 178.209 234.258,178.144 235.431,171.376 236.080 C 167.122 236.487,165.550 237.125,160.911 240.324 C 146.711 250.114,120.366 248.111,108.758 236.358 C 106.379 233.949,103.727 231.995,102.827 231.988 C 96.723 231.942,99.950 224.638,110.807 213.928 C 117.138 207.683,136.261 205.537,149.559 209.581 C 152.396 210.444,154.861 211.006,155.036 210.831 C 157.670 208.196,126.524 205.954,118.146 208.175 M251.194 208.733 C 244.593 210.812,240.757 213.752,231.973 223.465 C 221.526 235.018,221.460 236.022,231.089 237.086 C 233.110 237.309,236.309 238.566,238.689 240.071 C 247.921 245.908,252.397 247.215,263.011 247.172 C 269.653 247.145,279.447 245.619,280.642 244.425 C 280.947 244.120,280.297 244.076,279.198 244.329 C 271.685 246.052,269.236 246.363,263.011 246.380 C 252.317 246.410,247.943 245.119,238.471 239.135 C 235.328 237.149,232.919 236.290,229.679 236.000 C 223.346 235.432,223.487 234.213,230.851 225.821 C 244.900 209.809,247.145 208.708,267.200 207.984 L 280.400 207.508 268.000 207.427 C 258.287 207.364,254.645 207.647,251.194 208.733 M283.760 209.316 C 287.609 210.680,294.034 216.765,298.220 223.012 C 299.772 225.329,301.207 227.059,301.409 226.858 C 301.881 226.386,299.077 222.339,294.493 216.876 C 290.517 212.138,284.621 207.964,282.043 208.063 C 281.053 208.101,281.735 208.599,283.760 209.316 M77.939 228.400 C 77.939 237.640,78.056 241.310,78.197 236.557 C 78.339 231.803,78.339 224.243,78.196 219.757 C 78.054 215.270,77.938 219.160,77.939 228.400 M121.600 212.839 C 120.220 213.308,120.778 213.379,123.400 213.069 C 127.854 212.541,128.106 213.151,125.200 217.428 C 124.100 219.047,123.231 221.098,123.269 221.986 C 123.323 223.261,123.471 223.159,123.973 221.498 C 124.323 220.342,125.545 218.019,126.689 216.335 C 129.433 212.297,127.369 210.878,121.600 212.839 M273.186 212.822 C 272.907 213.274,273.786 215.316,275.139 217.359 C 278.475 222.395,278.692 230.614,275.621 235.600 C 272.676 240.382,274.793 242.960,279.200 239.958 C 280.066 239.368,279.565 239.285,277.400 239.659 C 273.887 240.267,273.791 239.870,276.421 235.600 C 279.438 230.701,279.248 222.878,275.973 217.153 L 273.546 212.911 275.773 212.576 L 278.000 212.240 275.847 212.120 C 274.663 212.054,273.466 212.370,273.186 212.822 M285.630 216.200 C 287.476 217.630,290.190 220.445,291.662 222.456 L 294.339 226.111 291.479 230.359 C 289.906 232.695,288.986 234.380,289.434 234.102 C 289.883 233.825,291.354 231.933,292.702 229.897 L 295.153 226.196 292.577 222.596 C 289.939 218.912,284.281 213.600,282.994 213.600 C 282.599 213.600,283.785 214.770,285.630 216.200 M111.818 219.050 C 105.376 225.937,105.414 227.878,112.115 234.000 C 114.664 236.329,114.656 236.301,111.837 233.071 C 106.166 226.571,106.203 225.908,112.618 219.050 C 114.599 216.932,116.039 215.200,115.819 215.200 C 115.599 215.200,113.799 216.932,111.818 219.050 M153.200 216.800 C 152.928 217.240,152.952 217.998,153.253 218.485 C 153.650 219.128,153.955 219.120,154.364 218.458 C 155.339 216.881,157.411 218.375,162.383 224.238 C 168.033 230.901,168.017 230.837,164.400 232.348 C 160.515 233.972,160.868 234.559,164.800 233.014 C 169.045 231.347,168.902 230.717,162.674 223.604 C 156.494 216.545,154.321 214.986,153.200 216.800 M245.018 217.217 C 237.095 222.767,231.442 232.917,236.353 232.776 C 236.819 232.762,236.570 232.384,235.800 231.936 C 233.626 230.670,234.026 229.799,239.672 223.490 C 244.566 218.023,248.070 215.779,246.882 218.874 C 245.723 221.895,245.585 224.401,246.732 221.600 C 248.856 216.413,248.277 214.934,245.018 217.217 M139.453 218.094 C 138.152 221.484,141.540 225.390,145.023 224.516 C 147.500 223.894,148.334 221.783,147.240 218.906 C 146.271 216.356,140.357 215.739,139.453 218.094 M262.168 217.851 C 260.625 221.872,264.607 225.874,268.422 224.135 C 273.150 221.981,271.404 216.800,265.950 216.800 C 263.898 216.800,262.413 217.213,262.168 217.851 M351.503 225.494 C 351.449 230.313,351.185 235.638,350.916 237.328 C 350.594 239.344,350.660 239.850,351.108 238.800 C 352.110 236.448,352.899 222.425,352.201 219.366 C 351.796 217.591,351.568 219.589,351.503 225.494 M145.914 219.400 C 147.045 221.204,145.711 223.500,143.326 223.855 C 141.017 224.198,139.260 220.656,140.812 218.785 C 142.112 217.219,144.746 217.536,145.914 219.400 M268.343 218.857 C 270.242 220.757,268.830 224.000,266.103 224.000 C 263.865 224.000,262.139 219.727,263.733 218.133 C 264.676 217.191,267.049 217.563,268.343 218.857 M323.488 224.800 C 323.488 228.980,323.623 230.690,323.788 228.600 C 323.953 226.510,323.953 223.090,323.788 221.000 C 323.623 218.910,323.488 220.620,323.488 224.800 M154.800 226.800 C 154.800 230.507,155.045 232.924,155.344 232.170 C 155.643 231.417,155.888 229.000,155.888 226.800 C 155.888 224.600,155.643 222.183,155.344 221.430 C 155.045 220.676,154.800 223.093,154.800 226.800 M122.602 226.800 C 122.611 228.560,122.774 229.186,122.966 228.191 C 123.157 227.196,123.150 225.756,122.950 224.991 C 122.749 224.226,122.593 225.040,122.602 226.800 M301.820 228.903 C 302.381 230.508,300.997 232.000,298.947 232.000 C 298.104 232.000,295.219 234.032,292.537 236.515 C 289.854 238.999,286.206 241.691,284.430 242.498 C 282.653 243.305,281.668 243.973,282.240 243.982 C 284.335 244.018,288.508 241.326,292.800 237.171 C 295.655 234.407,298.014 232.822,299.519 232.656 C 302.418 232.336,304.052 230.098,302.464 228.622 C 301.559 227.781,301.445 227.830,301.820 228.903 M245.637 230.400 C 245.636 231.060,246.317 233.101,247.149 234.935 C 249.104 239.241,248.548 239.650,244.498 236.887 C 241.160 234.609,236.854 232.203,237.613 233.038 C 238.778 234.321,247.737 239.996,248.600 239.998 C 249.966 240.001,249.885 239.511,247.615 234.000 C 246.528 231.360,245.637 229.740,245.637 230.400 M123.238 231.600 C 123.220 232.480,123.925 234.379,124.803 235.819 C 127.727 240.616,125.330 241.227,118.011 237.552 C 114.968 236.024,114.902 236.021,116.754 237.489 C 122.141 241.762,130.587 241.784,126.724 237.516 C 126.022 236.740,124.958 234.732,124.359 233.053 C 123.720 231.260,123.257 230.660,123.238 231.600 M322.553 242.502 C 322.432 250.479,322.643 252.806,323.557 253.564 C 324.193 254.092,324.825 256.027,324.961 257.862 L 325.208 261.200 325.654 258.107 C 325.972 255.902,325.742 254.657,324.850 253.768 C 323.905 252.825,323.491 250.070,323.153 242.461 L 322.706 232.400 322.553 242.502 M152.492 236.372 C 149.670 240.679,151.911 241.239,157.256 237.562 C 159.205 236.220,160.800 234.943,160.800 234.723 C 160.800 234.503,159.177 235.440,157.193 236.805 C 153.143 239.591,151.320 239.382,153.301 236.358 C 154.007 235.281,154.404 234.400,154.184 234.400 C 153.964 234.400,153.203 235.287,152.492 236.372 M284.039 236.862 C 282.081 238.148,280.827 239.200,281.254 239.200 C 282.127 239.200,288.000 235.345,288.000 234.771 C 288.000 234.258,288.028 234.243,284.039 236.862 M349.693 242.045 C 349.642 242.949,348.298 246.909,346.708 250.845 C 345.117 254.780,342.828 261.276,341.623 265.280 C 338.784 274.707,335.938 279.778,331.680 283.000 C 326.331 287.047,326.031 286.191,329.124 275.716 C 330.183 272.132,331.263 268.238,331.524 267.062 C 331.786 265.886,332.900 263.854,334.000 262.546 C 335.100 261.239,335.977 259.501,335.949 258.685 C 335.910 257.545,335.713 257.665,335.101 259.200 C 334.663 260.299,333.648 261.919,332.846 262.800 C 331.538 264.235,326.967 278.967,326.274 283.980 C 325.857 286.993,327.977 286.853,332.258 283.584 C 336.570 280.292,339.620 274.842,342.324 265.600 C 343.289 262.300,345.532 255.932,347.308 251.449 C 349.083 246.967,350.367 242.647,350.161 241.849 C 349.837 240.599,349.773 240.626,349.693 242.045 M209.938 244.273 C 209.545 245.297,213.871 261.519,216.053 267.200 C 219.172 275.325,218.211 282.866,213.723 285.468 C 212.115 286.400,211.160 287.170,211.600 287.179 C 217.840 287.299,220.574 276.902,216.854 267.200 C 215.735 264.282,210.400 245.780,210.400 244.819 C 210.400 243.751,214.144 243.752,214.673 244.820 C 214.897 245.271,214.989 245.181,214.878 244.620 C 214.583 243.126,210.489 242.838,209.938 244.273 M215.280 246.800 C 215.254 247.240,216.158 250.660,217.288 254.400 C 224.100 276.943,224.723 282.067,221.164 286.296 C 220.045 287.627,217.711 289.341,215.979 290.105 C 212.177 291.783,212.300 292.567,216.114 290.965 C 226.371 286.656,226.424 278.990,216.403 249.200 C 215.811 247.440,215.305 246.360,215.280 246.800 M78.509 248.822 C 78.449 249.934,77.809 251.688,77.086 252.720 C 75.463 255.037,76.563 264.338,79.746 275.200 C 80.842 278.940,81.928 282.720,82.160 283.600 C 83.722 289.522,88.167 303.200,88.530 303.200 C 88.773 303.200,88.738 302.592,88.453 301.849 C 88.168 301.106,86.657 296.156,85.096 290.849 C 77.122 263.743,75.894 257.192,78.004 253.005 C 78.724 251.577,79.156 249.597,78.965 248.605 C 78.641 246.920,78.611 246.934,78.509 248.822 M336.202 254.000 C 336.211 255.760,336.374 256.386,336.566 255.391 C 336.757 254.396,336.750 252.956,336.550 252.191 C 336.349 251.426,336.193 252.240,336.202 254.000 M65.600 259.742 C 65.600 260.123,66.631 261.687,67.892 263.218 C 69.157 264.753,70.568 267.792,71.042 270.000 C 71.964 274.296,73.466 278.562,73.549 277.119 C 73.577 276.635,73.268 275.195,72.862 273.919 C 72.456 272.644,71.903 270.269,71.633 268.642 C 71.210 266.088,65.600 257.812,65.600 259.742 M323.595 265.400 C 323.318 267.490,322.376 271.661,321.502 274.669 C 320.628 277.676,320.040 280.521,320.197 280.991 C 320.556 282.069,323.712 270.469,324.437 265.400 C 324.737 263.310,324.783 261.600,324.540 261.600 C 324.297 261.600,323.872 263.310,323.595 265.400 M74.088 280.400 C 74.746 283.342,75.204 283.980,75.188 281.933 C 75.181 281.090,74.810 279.860,74.363 279.200 C 73.770 278.324,73.696 278.647,74.088 280.400 M318.029 286.941 C 317.303 289.503,316.505 292.320,316.255 293.200 C 316.006 294.080,316.038 294.578,316.326 294.308 C 317.025 293.653,320.058 282.992,319.660 282.593 C 319.488 282.422,318.754 284.378,318.029 286.941 M182.933 285.333 C 181.508 286.759,182.516 289.619,184.874 290.838 C 186.235 291.542,187.523 291.944,187.735 291.732 C 187.947 291.519,187.104 290.859,185.861 290.265 C 179.804 287.371,183.126 284.648,189.600 287.200 C 191.833 288.080,194.816 288.761,196.230 288.712 C 198.484 288.635,198.358 288.538,195.203 287.920 C 193.225 287.533,190.248 286.673,188.587 286.008 C 185.298 284.692,183.758 284.508,182.933 285.333 M206.400 288.000 L 204.400 288.641 206.400 288.708 C 207.500 288.745,208.940 288.427,209.600 288.000 C 211.128 287.013,209.483 287.013,206.400 288.000 M209.267 292.600 C 208.937 292.930,205.187 293.433,200.934 293.718 L 193.200 294.237 201.200 294.086 C 207.606 293.965,216.464 292.127,211.133 292.024 C 210.437 292.011,209.597 292.270,209.267 292.600 M315.263 295.825 C 315.080 298.798,306.388 318.591,302.120 325.754 C 277.916 366.378,249.907 386.266,210.436 390.855 L 201.200 391.929 208.705 391.528 C 245.504 389.561,276.948 368.235,301.200 328.797 C 307.794 318.075,316.619 297.969,315.710 295.741 C 315.438 295.075,315.308 295.099,315.263 295.825 M88.893 304.800 C 88.879 305.460,89.557 307.260,90.400 308.800 C 92.350 312.361,92.350 311.012,90.400 306.800 C 89.585 305.040,88.907 304.140,88.893 304.800 M92.011 312.223 C 91.992 313.321,96.877 322.553,100.976 329.161 C 125.321 368.413,156.550 389.530,193.200 391.521 L 200.400 391.912 194.000 391.163 C 166.984 387.998,154.474 383.023,134.831 367.629 C 121.218 356.961,106.581 338.649,96.097 319.170 C 93.856 315.006,92.017 311.880,92.011 312.223 M160.200 319.421 C 155.689 322.175,155.355 323.061,157.180 327.429 C 158.598 330.822,159.947 331.437,161.584 329.436 C 162.768 327.990,162.969 327.994,169.128 329.575 C 172.608 330.469,176.928 331.157,178.728 331.104 C 181.339 331.028,180.788 330.810,176.000 330.025 C 172.700 329.484,168.236 328.571,166.081 327.995 C 162.595 327.066,162.054 327.097,161.192 328.275 C 159.746 330.253,158.829 329.896,157.761 326.943 C 156.346 323.032,156.492 322.614,160.061 320.362 C 165.488 316.935,165.906 316.920,165.296 320.172 C 164.767 322.992,164.777 323.004,168.480 323.937 C 170.523 324.451,172.368 324.699,172.579 324.488 C 172.790 324.276,171.663 323.859,170.073 323.561 C 166.858 322.958,166.103 322.158,166.042 319.291 C 165.982 316.501,164.945 316.525,160.200 319.421 M237.069 318.054 C 236.804 318.743,236.995 319.715,237.494 320.214 C 240.393 323.113,235.405 324.734,220.800 325.637 L 210.800 326.256 221.200 326.003 C 233.306 325.709,238.670 324.436,239.056 321.768 C 239.196 320.796,238.926 320.000,238.456 320.000 C 237.985 320.000,237.600 319.460,237.600 318.800 C 237.600 316.970,238.966 317.346,242.647 320.192 C 244.491 321.617,246.126 322.853,246.280 322.938 C 246.726 323.185,244.684 329.118,243.850 330.000 C 243.352 330.526,242.738 330.321,242.058 329.400 C 240.892 327.822,238.562 327.605,235.838 328.819 C 234.827 329.270,231.840 329.946,229.200 330.322 C 225.178 330.894,224.910 331.021,227.548 331.102 C 229.279 331.156,232.839 330.599,235.458 329.863 C 239.965 328.599,240.277 328.603,241.250 329.934 C 243.274 332.701,247.122 328.516,247.188 323.475 C 247.221 320.916,237.889 315.916,237.069 318.054 M176.800 325.641 C 178.780 325.993,181.840 326.260,183.600 326.234 C 186.717 326.187,186.697 326.170,182.800 325.563 C 177.071 324.671,171.737 324.740,176.800 325.641 M195.009 327.487 C 198.917 327.922,203.330 327.932,205.809 327.511 C 209.287 326.921,208.164 326.796,199.200 326.776 C 188.429 326.752,188.418 326.754,195.009 327.487 M182.467 331.491 C 182.650 331.651,186.220 331.979,190.400 332.219 C 194.718 332.466,196.964 332.381,195.600 332.022 C 193.217 331.394,181.828 330.934,182.467 331.491 M206.000 331.951 C 204.680 332.260,207.920 332.369,213.200 332.193 C 218.480 332.017,223.160 331.750,223.600 331.600 C 225.167 331.064,208.356 331.399,206.000 331.951 M199.400 333.351 C 200.170 333.553,201.430 333.553,202.200 333.351 C 202.970 333.150,202.340 332.986,200.800 332.986 C 199.260 332.986,198.630 333.150,199.400 333.351 M177.869 339.654 C 176.319 343.692,201.775 347.554,213.200 345.014 C 215.382 344.529,212.815 344.413,205.128 344.650 C 193.132 345.019,181.597 343.467,179.248 341.167 C 177.476 339.432,178.856 338.844,182.288 339.872 C 183.992 340.382,186.064 340.768,186.893 340.728 C 188.430 340.655,181.241 338.444,179.375 338.415 C 178.811 338.407,178.133 338.964,177.869 339.654 M217.200 339.608 C 213.252 340.927,215.043 341.151,219.312 339.872 C 221.016 339.361,222.639 339.173,222.919 339.452 C 223.816 340.349,221.571 342.279,218.945 342.869 C 217.545 343.183,216.816 343.585,217.326 343.762 C 219.168 344.402,224.137 341.702,223.853 340.215 C 223.514 338.436,221.309 338.235,217.200 339.608 M194.922 341.774 C 198.534 342.254,202.957 342.254,206.922 341.774 C 212.913 341.048,212.651 341.014,201.200 341.014 C 190.140 341.014,189.648 341.074,194.922 341.774 " stroke="none" fill="#695c4d" fill-rule="evenodd"></path><path id="path2" d="M230.000 106.064 C 223.369 106.698,215.258 108.232,204.800 110.833 C 198.860 112.311,193.280 113.676,192.400 113.867 C 191.179 114.132,191.296 114.236,192.897 114.307 C 194.051 114.358,198.551 113.461,202.897 112.314 C 232.621 104.467,256.480 104.708,272.400 113.014 C 275.295 114.525,287.869 122.870,297.887 129.928 C 307.474 136.684,313.384 148.305,313.680 160.985 C 313.724 162.863,314.076 165.300,314.463 166.400 C 315.732 170.010,314.412 157.410,312.851 151.010 C 309.531 137.397,306.302 133.935,281.895 117.822 C 266.387 107.584,250.882 104.071,230.000 106.064 M135.600 110.621 C 131.183 111.898,127.211 112.284,116.800 112.448 L 103.600 112.656 103.137 118.528 C 102.576 125.635,100.990 129.547,96.847 134.042 C 90.861 140.536,88.043 148.839,86.001 166.000 C 85.320 171.720,84.423 178.920,84.008 182.000 C 83.101 188.721,83.026 190.841,83.717 190.149 C 84.002 189.865,84.542 186.835,84.917 183.416 C 85.293 179.997,85.783 175.760,86.007 174.000 C 86.231 172.240,86.790 167.740,87.249 164.000 C 89.095 148.964,92.313 140.110,98.273 133.664 C 102.024 129.606,103.863 124.951,104.554 117.760 C 104.961 113.529,105.244 112.812,106.319 113.293 C 111.569 115.639,127.081 114.157,141.410 109.941 C 142.637 109.580,144.931 110.225,148.524 111.941 C 151.440 113.334,154.366 114.367,155.025 114.237 C 156.425 113.960,144.045 108.751,142.345 108.901 C 141.715 108.957,138.680 109.731,135.600 110.621 M157.600 115.200 C 158.260 115.627,159.520 115.956,160.400 115.932 L 162.000 115.888 160.400 115.200 C 158.008 114.172,156.010 114.172,157.600 115.200 M183.600 115.200 L 181.200 115.811 183.600 115.826 C 184.920 115.834,186.900 115.552,188.000 115.200 L 190.000 114.559 188.000 114.574 C 186.900 114.583,184.920 114.864,183.600 115.200 M167.027 116.591 C 169.352 116.753,172.952 116.751,175.027 116.587 C 177.102 116.423,175.200 116.290,170.800 116.292 C 166.400 116.294,164.702 116.429,167.027 116.591 M315.356 173.200 C 315.332 175.400,315.622 177.920,316.000 178.800 C 316.931 180.966,316.952 177.918,316.041 172.800 L 315.400 169.200 315.356 173.200 M316.956 185.200 C 316.932 187.400,317.222 189.920,317.600 190.800 C 318.531 192.966,318.552 189.918,317.641 184.800 L 317.000 181.200 316.956 185.200 M127.200 186.431 C 125.608 186.784,127.851 186.866,132.400 186.621 C 136.800 186.384,140.550 186.057,140.733 185.895 C 141.345 185.354,130.041 185.802,127.200 186.431 M166.632 186.551 C 177.076 187.970,184.134 196.576,179.480 202.220 C 176.890 205.361,161.285 206.330,150.800 204.000 C 133.610 200.180,111.469 200.149,106.868 203.938 C 106.390 204.331,103.840 205.394,101.200 206.300 C 98.031 207.387,97.097 207.956,98.450 207.973 C 99.578 207.988,102.432 207.068,104.793 205.929 C 109.537 203.640,114.230 202.598,123.091 201.865 C 128.840 201.390,131.088 201.634,147.600 204.525 C 163.277 207.271,177.884 206.549,180.439 202.902 C 185.311 195.946,177.300 186.406,166.199 185.945 L 160.400 185.705 166.632 186.551 M231.052 186.358 C 221.897 188.139,214.752 204.800,223.143 204.800 C 223.614 204.800,223.238 204.038,222.306 203.106 C 219.362 200.162,220.565 194.799,225.090 190.701 C 228.707 187.424,228.790 187.397,237.366 186.623 C 245.664 185.875,245.767 185.843,240.000 185.814 C 236.700 185.798,232.673 186.042,231.052 186.358 M254.467 185.904 C 254.650 186.071,259.480 186.404,265.200 186.645 C 271.970 186.930,274.483 186.840,272.400 186.387 C 269.292 185.712,253.798 185.294,254.467 185.904 M117.600 188.179 C 102.963 192.444,93.083 198.386,91.813 203.686 C 91.292 205.863,92.504 208.007,94.240 207.976 C 95.495 207.953,95.492 207.889,94.200 207.136 C 88.197 203.640,101.188 193.531,116.800 189.550 C 120.540 188.597,123.750 187.678,123.933 187.508 C 124.566 186.923,120.392 187.366,117.600 188.179 M277.200 188.000 C 278.080 188.378,279.700 188.688,280.800 188.688 C 282.623 188.688,282.658 188.627,281.200 188.000 C 280.320 187.622,278.700 187.312,277.600 187.312 C 275.777 187.312,275.742 187.373,277.200 188.000 M289.243 191.045 C 304.114 196.018,312.839 204.522,306.400 207.768 C 305.300 208.323,304.874 208.782,305.453 208.788 C 310.219 208.842,311.002 203.855,306.875 199.728 C 302.235 195.088,288.798 188.676,284.068 188.845 C 283.371 188.870,285.699 189.860,289.243 191.045 M82.179 192.800 C 81.872 193.900,81.649 195.700,81.683 196.800 C 81.736 198.522,81.852 198.427,82.516 196.121 C 82.940 194.647,83.163 192.847,83.011 192.121 C 82.816 191.187,82.572 191.386,82.179 192.800 M318.400 194.236 C 318.400 195.172,319.120 199.026,320.000 202.800 C 321.392 208.770,321.600 212.483,321.600 231.368 C 321.600 250.405,321.762 253.253,322.918 254.531 C 324.094 255.830,324.126 256.616,323.219 261.794 C 321.448 271.903,321.004 273.869,319.194 279.600 C 316.995 286.567,316.230 291.645,318.290 285.600 C 323.593 270.041,326.002 255.594,323.623 253.619 C 322.636 252.800,322.467 249.218,322.573 231.322 C 322.687 212.081,322.527 209.185,320.932 201.648 C 319.160 193.278,318.400 191.054,318.400 194.236 M80.863 199.330 C 80.828 199.621,80.247 202.681,79.572 206.130 C 78.633 210.927,78.384 217.134,78.512 232.550 C 78.640 248.058,78.440 252.987,77.644 253.947 C 76.088 255.822,77.758 265.924,82.125 281.060 C 82.356 281.863,82.702 282.365,82.893 282.174 C 83.083 281.984,82.654 279.706,81.938 277.114 C 78.714 265.428,77.430 255.979,78.786 253.910 C 79.729 252.470,79.915 248.214,79.803 230.674 C 79.704 215.296,79.961 208.014,80.707 205.023 C 81.280 202.725,81.564 200.385,81.337 199.823 C 81.111 199.260,80.898 199.038,80.863 199.330 M264.800 201.717 C 262.380 202.117,256.260 203.200,251.200 204.123 C 243.991 205.438,240.096 205.710,233.200 205.377 C 226.577 205.057,225.093 205.150,227.200 205.753 C 230.791 206.779,246.510 206.104,254.800 204.567 C 271.532 201.464,273.475 201.301,281.495 202.328 C 288.682 203.248,297.817 205.774,299.560 207.324 C 299.978 207.696,301.238 207.988,302.360 207.972 C 306.013 207.923,292.800 203.199,285.600 201.979 C 278.060 200.703,271.443 200.619,264.800 201.717 M121.643 206.535 C 115.855 207.461,111.453 210.165,106.604 215.774 C 96.865 227.040,95.020 233.600,101.590 233.600 C 103.024 233.600,104.880 234.849,107.630 237.663 C 109.814 239.897,112.500 242.200,113.600 242.779 C 117.170 244.659,125.801 247.202,128.332 247.120 C 130.022 247.065,129.182 246.686,125.665 245.916 C 118.243 244.293,112.987 241.591,108.153 236.911 C 105.610 234.449,103.187 232.800,102.113 232.800 C 97.449 232.800,97.420 230.089,102.011 223.184 C 110.917 209.786,115.998 207.200,133.409 207.200 C 151.995 207.200,157.055 209.487,169.288 223.412 C 179.669 235.229,179.797 236.173,171.135 237.020 C 167.089 237.416,151.800 245.600,155.107 245.600 C 155.609 245.600,158.487 243.959,161.504 241.953 C 165.957 238.991,167.872 238.220,171.694 237.845 C 179.611 237.068,180.783 233.813,175.107 228.362 C 173.296 226.623,170.005 223.040,167.792 220.400 C 157.641 208.287,141.333 203.387,121.643 206.535 M259.600 206.471 C 248.569 207.399,241.059 211.289,234.034 219.714 C 231.885 222.291,228.523 226.078,226.563 228.129 C 220.705 234.260,221.397 236.773,229.205 237.713 C 233.404 238.218,235.434 239.019,239.896 241.932 C 245.255 245.430,251.629 247.755,253.752 246.985 C 254.328 246.776,253.360 246.369,251.600 246.081 C 248.109 245.509,245.002 244.062,238.689 240.071 C 236.309 238.566,233.110 237.309,231.089 237.086 C 221.453 236.022,221.521 235.023,232.024 223.409 C 245.257 208.776,249.805 206.858,270.192 207.315 C 285.298 207.653,287.512 208.577,295.218 217.752 C 303.527 227.645,304.915 232.800,299.272 232.800 C 297.763 232.800,295.979 233.988,293.170 236.863 C 290.986 239.098,287.940 241.602,286.400 242.428 C 284.860 243.254,284.181 243.945,284.892 243.965 C 286.383 244.005,289.293 241.885,294.400 237.037 C 296.380 235.157,298.784 233.615,299.743 233.609 C 304.764 233.582,304.995 230.112,300.433 223.250 C 289.974 207.517,282.700 204.528,259.600 206.471 M58.200 208.060 C 59.669 209.617,59.420 211.827,57.600 213.386 C 56.720 214.139,56.000 215.393,56.000 216.171 C 56.000 216.949,56.720 218.036,57.600 218.586 C 58.933 219.418,59.200 220.453,59.203 224.792 C 59.206 230.933,61.216 243.132,62.882 247.119 C 63.532 248.675,63.843 250.895,63.579 252.097 C 62.889 255.236,64.589 260.686,67.274 263.943 C 68.553 265.495,69.608 267.313,69.617 267.982 C 69.626 268.652,70.526 272.242,71.617 275.959 C 74.385 285.392,74.120 285.964,69.094 281.400 C 65.788 278.398,63.217 273.623,61.232 266.800 C 59.322 260.235,58.463 257.768,56.705 253.809 C 55.877 251.944,55.200 250.049,55.200 249.598 C 55.200 249.147,54.866 248.153,54.458 247.389 C 54.051 246.625,53.469 245.280,53.165 244.400 C 52.862 243.520,52.464 243.194,52.281 243.676 C 52.099 244.158,53.209 247.541,54.750 251.193 C 56.290 254.845,58.512 261.111,59.687 265.117 C 62.493 274.680,65.219 279.614,69.515 282.906 C 75.618 287.583,76.087 286.950,73.269 277.841 C 72.207 274.409,71.081 270.352,70.767 268.827 C 70.453 267.301,69.088 264.674,67.734 262.988 C 65.654 260.401,65.221 259.090,64.952 254.562 C 64.776 251.613,63.950 247.141,63.116 244.625 C 62.282 242.109,61.191 235.449,60.691 229.825 C 59.965 221.649,59.470 219.254,58.220 217.872 C 56.666 216.155,56.667 216.133,58.375 214.425 C 60.351 212.449,60.366 207.954,58.400 207.362 C 57.432 207.070,57.393 207.205,58.200 208.060 M342.133 207.733 C 341.078 208.788,341.586 213.645,342.800 214.111 C 344.452 214.745,344.302 216.563,342.400 218.982 C 341.149 220.573,340.794 222.256,340.772 226.708 C 340.742 232.916,339.137 242.998,337.573 246.800 C 337.030 248.120,336.518 251.592,336.435 254.516 C 336.307 258.987,335.942 260.238,334.141 262.378 C 332.963 263.778,331.786 265.886,331.524 267.062 C 331.263 268.238,330.183 272.132,329.124 275.716 C 326.030 286.194,326.329 287.044,331.689 283.000 C 335.758 279.930,339.082 274.056,341.537 265.600 C 342.495 262.300,344.747 255.895,346.540 251.368 C 348.334 246.840,349.585 242.918,349.320 242.653 C 349.055 242.388,348.617 242.853,348.346 243.685 C 348.076 244.518,346.480 248.800,344.799 253.200 C 343.119 257.600,341.317 262.820,340.795 264.800 C 339.091 271.257,335.672 277.939,332.506 281.000 C 327.528 285.811,327.252 285.053,330.388 275.186 C 331.160 272.758,332.057 269.518,332.382 267.986 C 332.707 266.454,333.662 264.448,334.505 263.528 C 336.443 261.414,337.597 257.433,337.612 252.805 C 337.618 250.822,338.196 247.580,338.897 245.600 C 340.253 241.767,342.332 228.128,342.375 222.792 C 342.393 220.469,342.841 219.309,344.000 218.586 C 344.880 218.036,345.600 216.882,345.600 216.021 C 345.600 215.161,344.880 214.071,344.000 213.600 C 342.457 212.774,341.604 207.999,343.000 208.001 C 345.076 208.004,348.546 212.771,350.278 218.000 C 350.963 220.065,351.083 220.144,351.137 218.568 C 351.298 213.886,344.347 205.520,342.133 207.733 M53.260 211.000 C 51.313 213.977,49.316 220.144,51.123 217.600 C 51.592 216.940,51.981 215.852,51.988 215.182 C 51.994 214.513,53.106 212.623,54.458 210.982 C 55.810 209.342,56.535 208.000,56.070 208.000 C 55.604 208.000,54.340 209.350,53.260 211.000 M122.800 213.193 C 122.360 213.340,120.989 213.684,119.753 213.957 C 117.109 214.542,111.123 219.841,108.727 223.718 C 106.487 227.342,109.244 232.067,116.184 236.496 C 120.792 239.437,120.818 238.746,116.220 235.527 C 110.318 231.396,107.479 226.914,109.149 224.366 C 113.406 217.869,117.283 214.974,123.000 214.024 C 126.783 213.396,127.091 213.871,124.800 216.800 C 123.940 217.900,123.228 219.154,123.218 219.586 C 123.208 220.018,124.100 219.047,125.200 217.428 C 128.043 213.244,127.185 211.730,122.800 213.193 M274.741 215.086 C 275.456 216.469,276.225 217.600,276.449 217.600 C 276.673 217.600,276.484 216.904,276.028 216.053 C 272.624 209.691,285.152 215.097,290.713 222.389 C 292.396 224.595,293.957 226.400,294.184 226.400 C 294.659 226.400,294.220 225.774,290.164 220.665 C 286.346 215.855,283.017 213.843,277.712 213.139 L 273.441 212.573 274.741 215.086 M140.854 218.734 C 140.301 219.401,140.034 220.408,140.261 220.973 C 140.535 221.654,140.695 221.557,140.737 220.686 C 140.811 219.139,142.682 218.251,144.442 218.927 C 146.642 219.771,145.511 222.804,143.009 222.769 C 141.743 222.751,141.116 223.036,141.524 223.444 C 142.556 224.476,144.894 223.813,145.910 222.200 C 147.754 219.273,143.071 216.063,140.854 218.734 M154.456 218.600 C 154.487 219.150,154.855 220.320,155.273 221.200 C 155.981 222.691,156.010 222.677,155.691 221.000 C 155.468 219.825,155.740 219.200,156.475 219.200 C 157.094 219.200,157.600 219.473,157.600 219.808 C 157.600 220.142,158.410 220.882,159.400 221.453 C 160.539 222.110,160.240 221.593,158.587 220.046 C 155.824 217.459,154.363 216.948,154.456 218.600 M242.000 220.800 C 240.281 222.560,239.152 224.000,239.489 224.000 C 239.827 224.000,241.012 222.920,242.123 221.600 C 245.048 218.123,245.402 218.543,244.987 225.004 C 244.716 229.228,244.966 231.649,245.905 233.897 C 247.191 236.974,247.189 236.984,245.398 236.525 C 243.655 236.078,243.660 236.110,245.578 237.569 C 248.455 239.760,248.916 238.865,247.064 234.679 C 245.411 230.942,245.249 222.484,246.763 219.000 C 247.863 216.469,245.274 217.447,242.000 220.800 M263.733 218.133 C 262.022 219.845,263.921 224.049,266.360 223.949 C 267.121 223.918,266.904 223.619,265.800 223.175 C 263.743 222.348,263.355 219.397,265.210 218.685 C 267.016 217.992,268.917 219.936,268.366 221.913 C 267.990 223.258,268.065 223.357,268.735 222.400 C 270.655 219.658,266.096 215.770,263.733 218.133 M49.884 226.000 C 49.882 229.960,50.017 231.681,50.185 229.824 C 50.352 227.967,50.354 224.727,50.189 222.624 C 50.024 220.521,49.886 222.040,49.884 226.000 M121.983 224.234 C 121.700 226.122,121.778 228.863,122.156 230.323 C 122.713 232.471,122.844 231.814,122.844 226.890 C 122.844 219.896,122.700 219.451,121.983 224.234 M351.429 224.400 C 351.435 226.600,351.590 227.405,351.774 226.189 C 351.958 224.973,351.953 223.173,351.763 222.189 C 351.573 221.205,351.423 222.200,351.429 224.400 M278.541 226.800 C 278.544 230.874,278.651 231.233,279.250 229.175 C 279.658 227.772,279.656 225.749,279.246 224.375 C 278.650 222.377,278.538 222.761,278.541 226.800 M156.229 226.800 C 156.235 229.000,156.390 229.805,156.574 228.589 C 156.758 227.373,156.753 225.573,156.563 224.589 C 156.373 223.605,156.223 224.600,156.229 226.800 M163.466 226.481 L 166.312 230.162 161.106 233.481 C 155.013 237.365,154.154 237.550,155.220 234.748 C 156.646 230.997,156.026 230.810,154.164 234.430 C 151.586 239.443,152.685 239.881,158.289 236.075 C 160.953 234.266,164.048 232.438,165.167 232.013 C 167.886 230.979,167.759 230.401,163.910 226.303 L 160.619 222.800 163.466 226.481 M236.550 227.044 C 233.570 230.154,233.781 230.745,238.862 233.497 C 241.316 234.826,242.943 235.454,242.477 234.893 C 242.011 234.331,240.187 233.181,238.424 232.336 C 234.627 230.517,234.607 230.428,237.271 227.261 C 239.860 224.185,239.417 224.051,236.550 227.044 M288.362 232.904 C 285.939 235.435,285.701 235.890,287.344 234.848 C 289.137 233.712,292.613 229.600,291.781 229.600 C 291.640 229.600,290.102 231.087,288.362 232.904 M350.153 234.701 C 349.813 237.726,349.702 240.369,349.907 240.574 C 350.485 241.152,351.370 234.190,351.054 231.553 C 350.880 230.105,350.534 231.317,350.153 234.701 M276.187 236.012 C 273.977 239.851,273.978 240.003,276.200 239.988 C 277.502 239.979,277.702 239.787,276.925 239.294 C 276.039 238.732,276.084 238.157,277.184 236.032 C 279.095 232.335,278.312 232.319,276.187 236.012 M50.507 236.400 C 50.552 237.280,50.864 239.080,51.200 240.400 L 51.811 242.800 51.893 240.000 C 51.938 238.460,51.627 236.660,51.200 236.000 C 50.562 235.013,50.439 235.084,50.507 236.400 M281.200 237.644 C 279.440 238.477,278.468 239.167,279.040 239.179 C 280.204 239.203,284.800 236.969,284.800 236.379 C 284.800 235.911,285.037 235.828,281.200 237.644 M124.980 237.741 C 125.130 238.462,124.434 238.744,122.800 238.625 C 120.790 238.478,120.660 238.566,122.000 239.168 C 125.344 240.671,128.442 238.957,125.580 237.188 C 125.129 236.909,124.859 237.158,124.980 237.741 M210.200 242.714 C 208.667 243.877,208.416 246.113,209.498 248.962 C 210.161 250.709,210.604 252.192,212.680 259.600 C 213.174 261.360,214.302 265.109,215.189 267.932 C 217.628 275.701,217.399 281.881,214.600 283.796 C 209.096 287.563,195.632 288.422,189.677 285.388 C 186.262 283.647,182.728 283.590,182.086 285.265 C 177.224 297.934,215.463 298.531,223.728 285.916 C 225.172 283.714,224.898 271.834,223.316 267.977 C 222.514 266.023,220.005 257.808,218.315 251.600 C 217.836 249.840,217.119 247.775,216.722 247.011 C 216.325 246.247,216.000 245.089,216.000 244.439 C 216.000 242.090,212.423 241.026,210.200 242.714 M216.078 248.000 C 222.121 266.974,223.430 272.066,223.790 277.992 L 224.178 284.400 221.248 287.308 C 214.443 294.060,198.036 296.348,187.600 292.000 C 178.985 288.410,180.576 283.229,189.368 286.239 C 200.941 290.202,214.655 288.177,217.404 282.099 C 218.236 280.257,217.362 270.609,216.053 267.200 C 213.871 261.519,209.545 245.297,209.938 244.273 C 211.088 241.277,214.620 243.421,216.078 248.000 M280.561 244.506 C 280.283 244.784,277.973 245.496,275.428 246.087 C 270.999 247.117,270.955 247.151,274.400 246.885 C 277.966 246.610,284.771 244.191,282.333 244.065 C 281.637 244.029,280.839 244.228,280.561 244.506 M148.000 246.400 C 146.050 247.025,146.060 247.041,148.400 247.064 C 149.720 247.077,151.520 246.778,152.400 246.400 C 154.587 245.460,150.935 245.460,148.000 246.400 M135.424 247.789 C 137.527 247.954,140.767 247.952,142.624 247.785 C 144.481 247.617,142.760 247.482,138.800 247.484 C 134.840 247.486,133.321 247.624,135.424 247.789 M259.424 247.789 C 261.527 247.954,264.767 247.952,266.624 247.785 C 268.481 247.617,266.760 247.482,262.800 247.484 C 258.840 247.486,257.321 247.624,259.424 247.789 M83.705 285.600 C 90.453 322.763,124.894 367.326,158.885 382.873 C 166.614 386.409,180.840 390.360,177.600 388.072 C 176.940 387.606,175.743 387.219,174.941 387.212 C 172.257 387.190,156.710 381.510,155.200 380.000 C 154.799 379.599,153.466 378.822,148.090 375.854 C 139.914 371.340,123.057 356.799,117.769 349.700 C 116.581 348.105,115.423 346.620,115.195 346.400 C 111.295 342.633,99.249 323.526,94.768 314.000 C 89.860 303.566,89.813 303.444,86.408 292.000 C 84.172 284.486,82.998 281.707,83.705 285.600 M315.675 292.000 C 315.358 293.100,314.780 294.720,314.390 295.600 C 314.000 296.480,313.096 299.000,312.382 301.200 C 307.512 316.207,292.611 340.989,280.656 353.964 C 270.047 365.478,252.355 378.098,239.600 383.249 C 235.270 384.998,228.123 387.201,226.747 387.212 C 225.896 387.219,224.660 387.606,224.000 388.072 C 222.137 389.388,228.183 388.192,235.200 385.857 C 267.942 374.959,298.475 341.807,313.584 300.747 C 315.392 295.834,316.732 291.406,316.561 290.907 C 316.390 290.408,315.992 290.900,315.675 292.000 M126.644 307.508 C 128.270 308.997,129.600 310.977,129.600 311.908 C 129.600 312.839,129.960 313.600,130.400 313.600 C 130.840 313.600,131.200 312.728,131.200 311.662 C 131.200 309.467,126.971 304.800,124.982 304.800 C 124.116 304.800,124.667 305.697,126.644 307.508 M274.307 306.602 C 272.236 308.383,270.075 314.390,271.914 313.253 C 272.402 312.952,272.800 312.042,272.800 311.230 C 272.800 310.419,274.150 308.652,275.800 307.304 C 277.533 305.889,278.293 304.843,277.600 304.828 C 276.940 304.814,275.458 305.612,274.307 306.602 M160.764 318.019 C 154.642 321.205,153.859 322.513,155.630 326.598 C 158.161 332.440,159.653 333.358,162.054 330.554 C 163.249 329.158,163.494 329.158,168.990 330.554 C 175.056 332.094,192.438 333.923,200.400 333.858 C 210.822 333.773,231.034 332.044,235.167 330.883 C 239.291 329.725,239.612 329.741,240.936 331.162 C 243.613 334.035,246.146 331.886,247.640 325.475 C 248.161 323.244,246.914 320.000,245.537 320.000 C 245.093 320.000,243.760 319.100,242.573 318.000 C 238.980 314.668,235.891 315.843,236.229 320.414 C 236.444 323.331,235.059 323.661,217.200 324.943 C 189.985 326.898,167.643 324.560,167.562 319.747 C 167.496 315.794,165.846 315.374,160.764 318.019 M166.036 319.466 C 166.081 322.171,166.780 322.763,171.200 323.846 C 191.770 328.887,246.718 326.035,237.600 320.400 C 236.425 319.674,236.626 317.617,237.921 317.120 C 239.220 316.621,247.206 322.098,247.188 323.475 C 247.122 328.516,243.274 332.701,241.250 329.934 C 240.279 328.606,239.958 328.601,235.511 329.846 C 231.583 330.946,211.214 332.836,200.800 333.067 C 194.766 333.201,175.267 331.018,169.200 329.530 C 162.975 328.002,162.767 328.000,161.584 329.441 C 159.946 331.437,158.597 330.820,157.180 327.429 C 155.355 323.061,155.689 322.175,160.200 319.421 C 165.009 316.486,165.986 316.493,166.036 319.466 M177.333 338.133 C 174.336 341.130,181.529 345.729,188.893 345.525 C 190.843 345.471,190.108 345.153,186.264 344.387 C 180.035 343.147,177.600 342.011,177.600 340.347 C 177.600 338.430,179.469 338.219,184.616 339.552 C 191.295 341.283,211.698 341.279,217.535 339.545 C 222.071 338.198,224.000 338.437,224.000 340.347 C 224.000 341.901,221.938 342.962,216.231 344.345 C 212.584 345.228,212.144 345.481,214.162 345.533 C 215.572 345.570,217.732 345.195,218.962 344.700 C 224.429 342.503,224.881 342.132,224.638 340.044 C 224.380 337.829,218.710 337.321,215.202 339.199 C 212.820 340.474,190.726 340.176,185.600 338.800 C 180.812 337.515,178.165 337.301,177.333 338.133 M197.800 346.188 C 199.890 346.353,203.310 346.353,205.400 346.188 C 207.490 346.023,205.780 345.888,201.600 345.888 C 197.420 345.888,195.710 346.023,197.800 346.188 M182.000 389.600 C 183.320 389.936,186.200 390.208,188.400 390.205 L 192.400 390.200 188.800 389.559 C 186.820 389.207,183.940 388.935,182.400 388.954 L 179.600 388.989 182.000 389.600 M212.000 389.641 C 210.020 389.993,204.800 390.359,200.400 390.453 C 193.553 390.601,193.021 390.700,196.707 391.145 C 200.494 391.602,219.866 390.160,222.000 389.263 C 223.381 388.682,215.772 388.970,212.000 389.641 " stroke="none" fill="#af9d87" fill-rule="evenodd"></path><path id="path3" d="M228.688 107.261 C 221.802 107.991,214.676 109.352,202.400 112.282 C 176.683 118.421,161.633 118.237,147.800 111.615 C 144.760 110.160,142.591 109.593,141.400 109.943 C 127.094 114.155,111.567 115.638,106.319 113.293 C 105.244 112.812,104.961 113.529,104.554 117.760 C 103.863 124.951,102.024 129.606,98.273 133.664 C 92.307 140.117,89.077 149.013,87.260 164.000 C 86.806 167.740,86.211 172.420,85.938 174.400 C 85.665 176.380,85.174 180.340,84.848 183.200 C 84.522 186.060,83.237 193.080,81.993 198.800 C 79.804 208.865,79.735 209.892,79.836 230.674 C 79.921 248.173,79.727 252.473,78.786 253.910 C 77.623 255.684,77.645 256.051,79.595 267.200 C 80.356 271.552,83.245 282.072,86.515 292.400 C 87.351 295.040,88.411 298.460,88.870 300.000 C 90.630 305.898,97.470 320.305,101.785 327.200 C 104.705 331.867,114.152 345.393,115.195 346.400 C 115.423 346.620,116.581 348.105,117.769 349.700 C 123.057 356.799,139.914 371.340,148.090 375.854 C 153.503 378.842,154.800 379.600,155.200 380.008 C 157.964 382.830,176.234 388.190,187.691 389.541 C 230.352 394.569,266.083 376.831,293.607 336.959 C 302.471 324.119,308.948 311.783,312.382 301.200 C 313.096 299.000,313.999 296.480,314.387 295.600 C 315.099 293.989,315.300 293.332,318.426 282.400 C 319.369 279.100,320.457 275.320,320.844 274.000 C 323.523 264.845,324.431 255.753,322.800 254.400 C 321.787 253.559,321.600 250.000,321.600 231.552 C 321.600 214.421,321.326 208.522,320.331 204.250 C 318.591 196.778,317.518 190.949,316.753 184.800 C 316.397 181.940,315.733 176.720,315.278 173.200 C 314.822 169.680,314.109 164.100,313.694 160.800 C 311.624 144.374,307.806 136.918,297.887 129.928 C 265.615 107.189,256.753 104.286,228.688 107.261 M169.334 186.072 C 177.893 187.115,184.492 197.115,180.439 202.902 C 177.884 206.549,163.277 207.271,147.600 204.525 C 131.088 201.634,128.840 201.390,123.091 201.865 C 114.230 202.598,109.537 203.640,104.793 205.929 C 99.687 208.393,93.313 208.774,92.144 206.686 C 89.003 201.074,101.792 192.038,118.400 188.136 C 120.380 187.671,123.080 187.037,124.400 186.727 C 130.340 185.334,159.750 184.905,169.334 186.072 M273.253 186.424 C 294.117 190.048,309.600 197.863,309.600 204.771 C 309.600 208.352,303.397 209.871,299.600 207.219 C 297.335 205.638,288.316 203.201,281.495 202.328 C 273.477 201.301,271.633 201.456,254.800 204.560 C 240.789 207.145,224.140 206.655,221.052 203.567 C 216.611 199.126,223.135 187.898,231.052 186.358 C 235.678 185.457,267.979 185.508,273.253 186.424 M150.614 208.115 C 157.017 210.039,162.239 213.773,167.792 220.400 C 170.005 223.040,173.296 226.623,175.107 228.362 C 180.783 233.813,179.611 237.068,171.694 237.845 C 167.917 238.215,165.943 238.997,161.694 241.807 C 146.727 251.706,119.297 249.603,107.630 237.663 C 104.880 234.849,103.024 233.600,101.590 233.600 C 89.678 233.600,108.130 208.696,121.643 206.535 C 128.736 205.401,144.429 206.257,150.614 208.115 M280.789 206.821 C 287.446 207.811,293.580 212.942,300.433 223.250 C 304.996 230.114,304.769 233.539,299.743 233.633 C 298.760 233.651,295.790 235.705,292.930 238.345 C 280.609 249.716,254.496 251.463,239.841 241.896 C 235.435 239.020,233.393 238.217,229.205 237.713 C 221.397 236.773,220.705 234.260,226.563 228.129 C 228.523 226.078,231.885 222.291,234.034 219.714 C 243.885 207.900,259.362 203.632,280.789 206.821 M54.677 210.717 C 51.261 214.861,50.223 219.365,50.669 228.095 C 51.230 239.044,51.856 242.205,54.493 247.389 C 54.882 248.153,55.200 249.147,55.200 249.598 C 55.200 250.049,55.877 251.944,56.705 253.809 C 58.463 257.768,59.322 260.235,61.232 266.800 C 63.217 273.623,65.788 278.398,69.094 281.400 C 74.120 285.964,74.385 285.392,71.617 275.959 C 70.526 272.242,69.626 268.652,69.617 267.982 C 69.608 267.313,68.553 265.495,67.274 263.943 C 64.589 260.686,62.889 255.236,63.579 252.097 C 63.843 250.895,63.532 248.675,62.882 247.119 C 61.216 243.132,59.206 230.933,59.203 224.792 C 59.200 220.453,58.933 219.418,57.600 218.586 C 55.539 217.299,55.560 215.132,57.651 213.342 C 59.366 211.873,59.511 208.759,57.889 208.226 C 57.388 208.061,55.942 209.182,54.677 210.717 M342.400 210.372 C 342.400 211.925,342.952 213.039,344.000 213.600 C 344.880 214.071,345.600 215.161,345.600 216.021 C 345.600 216.882,344.880 218.036,344.000 218.586 C 342.841 219.309,342.393 220.469,342.375 222.792 C 342.332 228.128,340.253 241.767,338.897 245.600 C 338.196 247.580,337.618 250.822,337.612 252.805 C 337.597 257.433,336.443 261.414,334.505 263.528 C 333.662 264.448,332.707 266.454,332.382 267.986 C 332.057 269.518,331.160 272.758,330.388 275.186 C 327.252 285.053,327.528 285.811,332.506 281.000 C 335.672 277.939,339.091 271.257,340.795 264.800 C 341.702 261.360,347.465 245.714,348.750 243.200 C 350.322 240.126,351.487 223.141,350.414 218.942 C 348.362 210.910,342.400 204.535,342.400 210.372 M124.143 214.141 C 125.332 214.455,125.262 214.826,123.543 217.359 C 122.475 218.935,121.632 221.163,121.672 222.312 C 121.736 224.168,121.833 224.093,122.539 221.629 C 122.977 220.105,124.024 217.890,124.867 216.706 C 126.828 213.952,126.795 213.580,124.600 213.693 C 123.337 213.758,123.201 213.891,124.143 214.141 M275.200 214.040 C 275.200 214.282,275.829 215.632,276.598 217.040 C 277.366 218.448,278.411 221.040,278.919 222.800 C 279.670 225.401,279.858 225.610,279.921 223.919 C 279.965 222.775,279.122 220.187,278.049 218.168 C 276.298 214.877,276.237 214.462,277.449 214.142 C 278.407 213.889,278.276 213.759,277.000 213.693 C 276.010 213.642,275.200 213.798,275.200 214.040 M117.054 215.959 C 112.521 218.722,107.005 226.490,108.791 227.594 C 109.226 227.863,109.388 227.579,109.152 226.963 C 108.475 225.199,114.674 218.027,118.522 216.123 C 120.435 215.176,121.460 214.402,120.800 214.404 C 120.140 214.405,118.454 215.105,117.054 215.959 M281.557 215.283 C 282.633 215.713,283.910 216.320,284.395 216.632 C 284.879 216.945,284.589 216.570,283.749 215.800 C 282.910 215.030,281.633 214.423,280.911 214.451 C 280.082 214.483,280.320 214.789,281.557 215.283 M286.434 218.200 C 286.453 218.530,287.882 220.410,289.609 222.378 C 292.653 225.846,292.711 226.019,291.472 227.978 C 288.383 232.861,283.953 236.297,278.617 237.946 L 276.835 238.497 278.400 235.048 C 279.261 233.152,279.941 230.700,279.911 229.600 C 279.874 228.229,279.544 228.733,278.861 231.205 C 278.314 233.187,277.417 235.648,276.868 236.673 C 273.491 242.982,286.946 235.898,292.108 228.648 L 293.750 226.342 290.378 221.971 C 287.062 217.673,286.366 217.008,286.434 218.200 M141.721 219.108 C 139.938 220.238,140.965 222.800,143.200 222.800 C 144.500 222.800,145.277 222.284,145.468 221.296 C 145.717 220.001,144.472 218.425,143.200 218.425 C 142.980 218.425,142.315 218.732,141.721 219.108 M264.289 219.600 C 263.587 221.430,264.571 223.200,266.289 223.200 C 268.181 223.200,269.153 220.989,267.916 219.499 C 266.712 218.048,264.865 218.100,264.289 219.600 M144.659 221.066 C 144.808 221.838,144.407 222.400,143.706 222.400 C 142.220 222.400,141.323 221.096,142.026 219.958 C 142.750 218.787,144.347 219.460,144.659 221.066 M155.838 221.378 C 156.212 223.333,156.317 223.394,156.871 221.978 C 157.778 219.657,157.719 219.200,156.511 219.200 C 155.757 219.200,155.550 219.870,155.838 221.378 M241.929 221.801 C 235.476 229.008,234.108 231.200,236.064 231.200 C 236.540 231.200,238.875 232.492,241.253 234.070 C 246.244 237.383,247.366 237.366,245.910 234.000 C 244.966 231.817,244.869 231.768,244.836 233.467 C 244.795 235.587,244.870 235.604,239.943 232.407 L 236.286 230.034 239.893 225.389 C 241.998 222.678,243.937 220.912,244.550 221.147 C 245.128 221.368,245.600 221.021,245.600 220.375 C 245.600 218.534,244.455 218.979,241.929 221.801 M267.459 220.322 C 267.961 221.630,267.371 222.400,265.867 222.400 C 265.280 222.400,264.800 221.680,264.800 220.800 C 264.800 218.981,266.806 218.620,267.459 220.322 M158.400 221.256 C 158.400 221.508,159.840 223.421,161.600 225.508 C 165.541 230.182,165.603 229.662,160.747 232.680 C 155.836 235.733,156.223 235.741,156.538 232.600 C 156.784 230.155,156.737 230.191,155.757 233.200 C 154.380 237.429,154.865 237.460,161.022 233.535 L 166.246 230.204 162.595 225.502 C 159.066 220.958,158.400 220.284,158.400 221.256 M244.186 226.400 C 244.186 227.940,244.350 228.570,244.551 227.800 C 244.753 227.030,244.753 225.770,244.551 225.000 C 244.350 224.230,244.186 224.860,244.186 226.400 M110.739 230.538 C 112.300 232.985,119.822 238.411,121.607 238.377 C 122.263 238.365,121.247 237.555,119.350 236.577 C 117.452 235.600,114.432 233.360,112.637 231.600 C 110.261 229.269,109.746 228.980,110.739 230.538 M121.675 231.200 C 121.637 232.300,122.319 234.370,123.191 235.800 C 124.153 237.378,124.414 238.400,123.855 238.400 C 123.348 238.400,123.149 238.616,123.413 238.880 C 124.720 240.187,125.619 238.148,124.493 236.430 C 123.837 235.428,122.950 233.392,122.522 231.904 C 121.854 229.583,121.735 229.483,121.675 231.200 M214.453 242.428 C 215.304 242.884,216.000 243.789,216.000 244.439 C 216.000 245.089,216.325 246.247,216.722 247.011 C 217.119 247.775,217.836 249.840,218.315 251.600 C 220.005 257.808,222.514 266.023,223.316 267.977 C 226.815 276.505,224.926 286.248,219.012 290.169 C 207.734 297.646,181.600 296.137,181.600 288.008 C 181.600 283.774,184.600 282.800,189.677 285.388 C 195.632 288.422,209.096 287.563,214.600 283.796 C 217.399 281.881,217.628 275.701,215.189 267.932 C 214.302 265.109,213.174 261.360,212.680 259.600 C 210.604 252.192,210.161 250.709,209.498 248.962 C 207.590 243.938,210.386 240.252,214.453 242.428 M128.738 307.262 C 131.087 309.610,132.133 313.600,130.400 313.600 C 129.960 313.600,129.600 312.839,129.600 311.908 C 129.600 310.977,128.270 308.997,126.644 307.508 C 124.667 305.697,124.116 304.800,124.982 304.800 C 125.694 304.800,127.385 305.908,128.738 307.262 M275.800 307.304 C 274.150 308.652,272.800 310.419,272.800 311.230 C 272.800 312.042,272.402 312.952,271.914 313.253 C 271.293 313.637,271.205 312.996,271.622 311.101 C 272.245 308.264,275.561 304.784,277.600 304.828 C 278.293 304.843,277.533 305.889,275.800 307.304 M166.362 316.760 C 167.001 317.164,167.541 318.508,167.562 319.747 C 167.643 324.560,189.985 326.898,217.200 324.943 C 235.059 323.661,236.444 323.331,236.229 320.414 C 235.891 315.843,238.980 314.668,242.573 318.000 C 243.760 319.100,245.093 320.000,245.537 320.000 C 246.914 320.000,248.161 323.244,247.640 325.475 C 246.146 331.886,243.613 334.035,240.936 331.162 C 239.612 329.741,239.291 329.725,235.167 330.883 C 231.034 332.044,210.822 333.773,200.400 333.858 C 192.438 333.923,175.056 332.094,168.990 330.554 C 163.494 329.158,163.249 329.158,162.054 330.554 C 159.653 333.358,158.161 332.440,155.630 326.598 C 153.859 322.513,154.642 321.205,160.764 318.019 C 165.055 315.786,164.884 315.824,166.362 316.760 M185.600 338.800 C 190.726 340.176,212.820 340.474,215.202 339.199 C 218.710 337.321,224.380 337.829,224.638 340.044 C 224.887 342.183,224.263 342.669,218.400 344.907 C 214.490 346.400,189.078 346.362,183.600 344.856 C 179.086 343.615,176.800 341.986,176.800 340.009 C 176.800 337.225,178.738 336.958,185.600 338.800 " stroke="none" fill="#eacea9" fill-rule="evenodd"></path><path id="path4" d="M195.600 3.200 C 195.328 3.640,192.787 4.000,189.953 4.000 C 187.051 4.000,184.800 4.349,184.800 4.800 C 184.800 5.266,182.149 5.600,178.447 5.600 C 174.953 5.600,171.872 5.960,171.600 6.400 C 171.328 6.840,169.867 7.200,168.353 7.200 C 166.839 7.200,165.600 7.560,165.600 8.000 C 165.600 8.440,164.541 8.800,163.247 8.800 C 161.953 8.800,160.672 9.160,160.400 9.600 C 160.128 10.040,159.027 10.400,157.953 10.400 C 156.879 10.400,156.000 10.760,156.000 11.200 C 156.000 11.640,154.920 12.000,153.600 12.000 C 152.280 12.000,151.200 12.360,151.200 12.800 C 151.200 13.240,150.141 13.600,148.847 13.600 C 147.553 13.600,146.272 13.960,146.000 14.400 C 145.728 14.840,144.648 15.200,143.600 15.200 C 142.552 15.200,141.472 15.560,141.200 16.000 C 140.928 16.440,139.827 16.800,138.753 16.800 C 137.679 16.800,136.800 17.160,136.800 17.600 C 136.800 18.040,136.301 18.400,135.690 18.400 C 135.080 18.400,131.390 20.018,127.490 21.995 C 123.591 23.972,120.029 25.592,119.577 25.595 C 119.124 25.598,118.234 26.320,117.600 27.200 C 116.966 28.080,115.990 28.800,115.433 28.800 C 114.875 28.800,113.784 29.305,113.009 29.923 C 107.374 34.412,100.057 40.688,98.311 42.529 C 94.670 46.368,88.428 53.714,87.654 55.073 C 87.243 55.792,86.253 57.083,85.454 57.941 C 84.654 58.800,84.000 59.974,84.000 60.551 C 84.000 61.128,83.640 61.600,83.200 61.600 C 82.760 61.600,82.400 62.320,82.400 63.200 C 82.400 64.080,82.040 64.800,81.600 64.800 C 81.160 64.800,80.800 65.306,80.800 65.924 C 80.800 67.257,77.464 73.883,76.600 74.267 C 76.270 74.413,76.000 75.223,76.000 76.067 C 76.000 76.910,75.640 77.600,75.200 77.600 C 74.760 77.600,74.400 78.541,74.400 79.691 C 74.400 81.146,73.386 82.668,71.069 84.691 C 64.865 90.109,61.600 93.471,61.600 94.443 C 61.600 94.976,60.920 96.002,60.090 96.722 C 58.166 98.390,55.746 102.695,54.423 106.800 C 53.856 108.560,53.112 110.360,52.771 110.800 C 52.429 111.240,51.895 113.314,51.583 115.410 C 51.271 117.505,50.697 119.416,50.308 119.657 C 49.918 119.898,49.600 122.032,49.600 124.400 C 49.600 126.768,49.240 128.928,48.800 129.200 C 48.298 129.510,48.000 137.875,48.000 151.647 C 48.000 165.749,48.286 173.600,48.800 173.600 C 49.240 173.600,49.600 175.379,49.600 177.553 C 49.600 179.727,49.960 181.728,50.400 182.000 C 50.840 182.272,51.200 183.206,51.200 184.075 C 51.200 184.945,51.700 186.454,52.310 187.428 C 54.977 191.684,54.417 197.600,51.348 197.600 C 50.319 197.600,44.800 203.331,44.800 204.400 C 44.800 204.866,44.080 205.766,43.200 206.400 C 42.320 207.034,41.600 208.194,41.600 208.977 C 41.600 209.759,41.240 210.400,40.800 210.400 C 40.360 210.400,40.000 211.408,40.000 212.640 C 40.000 213.872,39.619 215.261,39.153 215.727 C 37.676 217.204,39.312 245.600,40.874 245.600 C 41.273 245.600,41.600 246.320,41.600 247.200 C 41.600 248.080,41.960 248.800,42.400 248.800 C 42.840 248.800,43.200 249.268,43.200 249.841 C 43.200 251.312,45.082 255.186,45.800 255.194 C 46.130 255.197,46.400 256.285,46.400 257.611 C 46.400 258.937,46.760 260.737,47.200 261.611 C 47.640 262.485,48.360 263.915,48.800 264.789 C 49.240 265.663,49.600 267.463,49.600 268.789 C 49.600 270.115,49.960 271.200,50.400 271.200 C 50.840 271.200,51.200 272.281,51.200 273.603 C 51.200 278.811,63.099 294.361,67.127 294.418 C 67.827 294.428,69.300 295.140,70.400 296.000 C 71.500 296.860,73.056 297.572,73.857 297.582 C 75.922 297.607,77.600 299.542,77.600 301.896 C 77.600 303.001,77.960 304.128,78.400 304.400 C 78.840 304.672,79.200 305.752,79.200 306.800 C 79.200 307.848,79.560 308.928,80.000 309.200 C 80.440 309.472,80.800 310.393,80.800 311.247 C 80.800 312.101,81.160 312.800,81.600 312.800 C 82.040 312.800,82.400 313.382,82.400 314.092 C 82.400 315.907,91.164 333.600,92.062 333.600 C 92.468 333.600,92.800 334.155,92.800 334.833 C 92.800 335.512,93.520 336.840,94.400 337.784 C 95.280 338.729,96.000 339.974,96.000 340.551 C 96.000 341.128,96.360 341.600,96.800 341.600 C 97.240 341.600,97.618 342.050,97.639 342.600 C 97.661 343.150,99.098 345.040,100.834 346.800 C 102.569 348.560,103.991 350.306,103.994 350.679 C 103.997 351.052,105.080 352.367,106.400 353.600 C 107.720 354.833,108.800 356.234,108.800 356.712 C 108.800 358.678,129.671 378.308,134.400 380.790 C 135.500 381.367,136.580 382.056,136.800 382.320 C 137.020 382.584,138.010 383.250,139.000 383.800 C 143.469 386.283,144.416 386.886,145.910 388.200 C 146.785 388.970,147.974 389.600,148.551 389.600 C 149.128 389.600,149.600 389.960,149.600 390.400 C 149.600 390.840,150.320 391.200,151.200 391.200 C 152.080 391.200,152.800 391.560,152.800 392.000 C 152.800 392.440,153.499 392.800,154.353 392.800 C 155.207 392.800,156.128 393.160,156.400 393.600 C 156.672 394.040,157.683 394.408,158.647 394.418 C 159.611 394.428,161.300 395.140,162.400 396.000 C 163.500 396.860,165.540 397.572,166.933 397.582 C 168.327 397.592,169.617 398.050,169.800 398.600 C 170.059 399.377,176.977 399.600,200.800 399.600 C 224.622 399.600,231.541 399.377,231.800 398.600 C 231.983 398.050,233.162 397.600,234.419 397.600 C 235.677 397.600,236.928 397.240,237.200 396.800 C 237.472 396.360,238.573 396.000,239.647 396.000 C 240.721 396.000,241.600 395.640,241.600 395.200 C 241.600 394.760,242.320 394.400,243.200 394.400 C 244.080 394.400,244.800 394.040,244.800 393.600 C 244.800 393.160,245.700 392.800,246.800 392.800 C 247.900 392.800,248.800 392.440,248.800 392.000 C 248.800 391.560,249.610 391.198,250.600 391.196 C 251.590 391.194,253.550 390.114,254.957 388.796 C 256.363 387.478,258.073 386.400,258.757 386.400 C 259.440 386.400,260.000 386.040,260.000 385.600 C 260.000 385.160,260.472 384.800,261.049 384.800 C 261.626 384.800,262.871 384.080,263.816 383.200 C 264.760 382.320,265.921 381.600,266.395 381.600 C 266.869 381.600,268.054 380.879,269.029 379.997 C 270.003 379.116,274.220 375.444,278.400 371.838 C 282.580 368.232,286.900 364.159,288.000 362.788 C 289.100 361.416,291.710 358.536,293.800 356.388 C 295.890 354.240,297.600 352.093,297.600 351.618 C 297.600 351.142,298.320 350.234,299.200 349.600 C 300.080 348.966,300.800 348.042,300.800 347.547 C 300.800 347.053,301.520 345.996,302.400 345.200 C 303.280 344.404,304.000 343.433,304.000 343.043 C 304.000 342.652,304.720 341.560,305.600 340.616 C 306.480 339.671,307.200 338.426,307.200 337.849 C 307.200 337.272,307.518 336.800,307.906 336.800 C 308.295 336.800,309.592 334.730,310.789 332.200 C 311.985 329.670,313.198 327.420,313.482 327.200 C 314.433 326.465,316.000 323.236,316.000 322.011 C 316.000 321.345,316.360 320.800,316.800 320.800 C 317.240 320.800,317.600 320.080,317.600 319.200 C 317.600 318.320,317.960 317.600,318.400 317.600 C 318.840 317.600,319.200 316.901,319.200 316.047 C 319.200 315.193,319.560 314.272,320.000 314.000 C 320.440 313.728,320.800 312.447,320.800 311.153 C 320.800 309.859,321.160 308.800,321.600 308.800 C 322.040 308.800,322.400 308.080,322.400 307.200 C 322.400 306.320,322.760 305.600,323.200 305.600 C 323.640 305.600,324.000 304.520,324.000 303.200 C 324.000 301.880,324.360 300.800,324.800 300.800 C 325.240 300.800,325.600 300.080,325.600 299.200 C 325.600 298.320,326.129 297.600,326.776 297.600 C 327.422 297.600,329.233 296.880,330.800 296.000 C 332.367 295.120,334.141 294.400,334.743 294.400 C 335.931 294.400,344.000 286.841,344.000 285.728 C 344.000 285.355,344.916 284.003,346.037 282.724 C 347.157 281.446,348.282 279.410,348.537 278.200 C 348.791 276.990,349.315 276.000,349.700 276.000 C 350.085 276.000,350.400 274.941,350.400 273.647 C 350.400 272.353,350.760 271.072,351.200 270.800 C 351.640 270.528,352.000 269.088,352.000 267.600 C 352.000 266.112,352.360 264.672,352.800 264.400 C 353.240 264.128,353.600 263.027,353.600 261.953 C 353.600 260.879,353.960 260.000,354.400 260.000 C 354.840 260.000,355.200 258.920,355.200 257.600 C 355.200 256.280,355.560 255.200,356.000 255.200 C 356.440 255.200,356.800 254.480,356.800 253.600 C 356.800 252.720,357.160 252.000,357.600 252.000 C 358.040 252.000,358.400 251.471,358.400 250.824 C 358.400 250.178,359.120 248.367,360.000 246.800 C 363.813 240.011,361.766 207.674,357.400 205.733 C 357.070 205.587,356.800 205.095,356.800 204.640 C 356.800 203.606,350.523 197.634,349.301 197.505 C 348.806 197.453,348.103 197.462,347.741 197.525 C 347.378 197.588,347.290 197.301,347.546 196.888 C 347.801 196.475,347.558 195.986,347.005 195.801 C 346.251 195.549,346.466 194.182,347.864 190.333 C 348.889 187.510,349.921 184.390,350.157 183.400 C 350.393 182.410,350.905 181.600,351.293 181.600 C 351.682 181.600,352.000 179.821,352.000 177.647 C 352.000 175.473,352.360 173.472,352.800 173.200 C 353.279 172.904,353.600 167.592,353.600 159.953 C 353.600 152.939,353.870 147.197,354.200 147.194 C 355.012 147.185,356.800 143.228,356.800 141.441 C 356.800 140.648,357.160 140.000,357.600 140.000 C 358.040 140.000,358.400 138.581,358.400 136.847 C 358.400 135.113,358.760 133.472,359.200 133.200 C 359.640 132.928,360.000 130.207,360.000 127.153 C 360.000 123.984,359.656 121.600,359.200 121.600 C 358.760 121.600,358.400 120.520,358.400 119.200 C 358.400 117.880,358.040 116.800,357.600 116.800 C 357.160 116.800,356.800 116.080,356.800 115.200 C 356.800 114.320,356.440 113.600,356.000 113.600 C 355.560 113.600,355.200 112.520,355.200 111.200 C 355.200 109.880,354.840 108.800,354.400 108.800 C 353.960 108.800,353.600 108.255,353.600 107.589 C 353.600 106.473,352.478 104.089,350.989 102.041 C 348.560 98.700,346.400 94.965,346.400 94.106 C 346.400 93.544,345.320 90.854,344.000 88.129 C 342.680 85.404,341.600 82.640,341.600 81.987 C 341.600 81.334,341.240 80.800,340.800 80.800 C 340.360 80.800,340.000 80.080,340.000 79.200 C 340.000 78.320,339.640 77.600,339.200 77.600 C 338.760 77.600,338.400 77.040,338.400 76.356 C 338.400 73.731,328.082 59.778,321.696 53.768 C 319.223 51.440,315.400 47.831,313.200 45.747 C 311.000 43.663,307.940 41.084,306.400 40.017 C 304.860 38.950,303.420 37.879,303.200 37.637 C 302.980 37.395,301.720 36.658,300.400 35.999 C 299.080 35.339,297.386 34.248,296.635 33.574 C 295.885 32.899,293.905 31.871,292.235 31.289 C 290.566 30.707,287.871 29.189,286.247 27.916 C 284.623 26.642,282.574 25.600,281.694 25.600 C 280.814 25.600,279.897 25.280,279.655 24.889 C 279.413 24.497,278.222 23.930,277.008 23.627 C 275.793 23.324,273.720 22.589,272.400 21.992 C 267.803 19.915,262.325 18.400,259.412 18.400 C 257.132 18.400,256.693 18.187,257.440 17.440 C 260.364 14.516,256.823 7.200,252.484 7.200 C 251.390 7.200,250.272 6.840,250.000 6.400 C 249.728 5.960,247.727 5.600,245.553 5.600 C 243.379 5.600,241.600 5.240,241.600 4.800 C 241.600 4.338,239.082 4.000,235.647 4.000 C 232.373 4.000,229.472 3.640,229.200 3.200 C 228.897 2.709,222.407 2.400,212.400 2.400 C 202.393 2.400,195.903 2.709,195.600 3.200 M256.000 106.025 C 267.750 108.092,270.241 109.197,284.400 118.617 C 310.698 136.116,313.602 140.402,315.958 165.200 C 317.012 176.299,319.542 192.484,321.710 202.000 C 323.381 209.338,323.520 211.729,323.393 230.908 C 323.265 250.093,323.373 251.955,324.709 253.495 C 326.457 255.511,324.944 266.508,321.198 279.000 C 320.044 282.850,318.172 289.060,317.039 292.800 C 301.713 343.393,264.337 381.642,221.936 390.125 C 160.774 402.362,102.839 359.004,82.804 286.000 C 82.201 283.800,80.817 278.940,79.730 275.200 C 76.838 265.251,75.454 254.822,76.809 253.189 C 77.623 252.208,77.884 246.921,77.945 230.158 C 78.020 209.578,78.141 207.880,80.184 198.800 C 81.373 193.520,83.075 183.080,83.967 175.600 C 87.234 148.216,89.498 140.603,96.660 132.918 C 100.404 128.901,102.219 124.224,102.906 116.827 L 103.392 111.600 115.896 111.600 C 126.398 111.600,129.646 111.293,136.182 109.681 L 143.965 107.761 150.182 110.560 C 164.682 117.086,179.640 116.814,206.932 109.531 C 223.536 105.100,242.880 103.718,256.000 106.025 M133.200 187.342 C 123.524 188.214,111.806 191.250,104.915 194.669 C 90.142 201.999,89.528 210.551,104.224 204.275 C 111.222 201.287,115.896 200.473,126.000 200.480 C 134.618 200.487,137.337 200.791,154.400 203.658 C 169.042 206.118,180.000 203.956,180.000 198.607 C 180.000 188.168,164.752 184.498,133.200 187.342 M237.600 187.380 C 226.571 188.369,221.574 191.988,221.612 198.960 C 221.644 204.678,234.236 206.442,252.000 203.217 C 265.136 200.832,268.250 200.467,275.200 200.497 C 284.951 200.540,291.241 201.619,297.030 204.241 C 311.994 211.020,311.486 202.269,296.487 194.876 C 286.352 189.881,261.192 185.578,247.600 186.516 C 246.720 186.577,242.220 186.966,237.600 187.380 M59.840 207.360 C 61.367 208.887,60.991 213.179,59.188 214.811 C 57.610 216.239,57.607 216.306,59.072 217.935 C 60.236 219.230,60.785 221.911,61.541 229.993 C 62.076 235.709,63.208 242.448,64.057 244.968 C 64.905 247.488,65.600 251.687,65.600 254.299 C 65.600 258.546,65.893 259.400,68.372 262.366 C 69.921 264.220,71.360 266.988,71.635 268.642 C 71.905 270.269,72.789 273.760,73.599 276.400 C 75.422 282.341,76.348 287.200,75.657 287.200 C 69.706 287.200,62.574 277.956,58.962 265.562 C 57.879 261.843,55.678 255.560,54.071 251.600 C 47.130 234.490,47.098 215.942,53.998 209.042 C 56.806 206.234,58.287 205.807,59.840 207.360 M348.115 209.694 C 354.282 216.815,353.885 234.064,347.151 251.600 C 345.461 256.000,343.289 262.300,342.324 265.600 C 339.620 274.842,336.570 280.292,332.258 283.584 C 327.977 286.853,325.857 286.993,326.274 283.980 C 326.965 278.981,331.536 264.236,332.840 262.800 C 334.925 260.505,336.000 257.223,336.000 253.157 C 336.000 251.210,336.716 247.004,337.590 243.809 C 338.465 240.614,339.489 233.716,339.865 228.480 C 340.397 221.099,340.848 218.743,341.875 217.992 C 343.525 216.786,343.581 215.296,342.000 214.689 C 340.746 214.208,340.251 208.016,341.376 206.891 C 342.474 205.793,346.010 207.263,348.115 209.694 M118.091 208.988 C 111.370 210.766,96.542 229.030,100.029 231.235 C 100.673 231.642,101.932 231.981,102.827 231.988 C 103.727 231.995,106.379 233.949,108.758 236.358 C 120.366 248.111,146.711 250.114,160.911 240.324 C 165.550 237.125,167.122 236.487,171.376 236.080 C 178.150 235.431,178.214 234.251,171.843 227.426 C 169.057 224.441,166.063 221.095,165.189 219.989 C 157.070 209.711,134.916 204.536,118.091 208.988 M250.824 209.728 C 243.486 212.207,241.131 214.104,230.851 225.821 C 223.487 234.213,223.346 235.432,229.679 236.000 C 232.919 236.290,235.328 237.149,238.471 239.135 C 247.874 245.076,252.301 246.400,262.759 246.400 C 276.214 246.400,285.013 243.481,292.527 236.525 C 295.215 234.036,298.104 232.000,298.947 232.000 C 301.004 232.000,302.383 230.503,301.800 228.903 C 299.488 222.564,288.741 211.075,283.430 209.266 C 277.634 207.291,257.178 207.581,250.824 209.728 M127.772 212.642 C 128.482 213.093,128.117 214.207,126.418 216.773 C 122.413 222.822,122.260 230.813,126.041 236.385 C 128.760 240.391,128.574 241.088,124.913 240.597 C 118.848 239.783,111.463 234.803,107.991 229.186 L 106.270 226.400 107.978 223.635 C 112.655 216.068,123.599 209.990,127.772 212.642 M279.872 212.847 C 284.359 213.810,288.638 217.093,292.577 222.596 L 295.153 226.196 292.804 229.743 C 286.194 239.722,269.598 245.379,275.621 235.600 C 278.692 230.614,278.475 222.395,275.139 217.359 C 271.617 212.041,272.443 211.254,279.872 212.847 M155.927 216.761 C 157.975 217.857,168.000 229.485,168.000 230.765 C 168.000 231.358,166.830 232.251,165.400 232.748 C 163.970 233.246,160.763 235.081,158.273 236.827 C 151.665 241.459,149.268 240.957,152.999 235.723 C 155.150 232.706,155.649 221.269,153.731 218.958 C 151.966 216.832,153.392 215.404,155.927 216.761 M247.794 217.800 C 247.578 218.790,246.915 221.335,246.320 223.455 C 245.323 227.008,245.381 227.695,247.061 232.255 C 249.884 239.916,249.901 240.000,248.613 240.000 C 247.968 240.000,245.889 238.877,243.994 237.504 C 242.099 236.131,238.803 234.131,236.670 233.059 C 232.003 230.716,231.970 230.821,240.130 222.197 C 246.130 215.857,248.516 214.488,247.794 217.800 M147.240 218.906 C 148.334 221.783,147.500 223.894,145.023 224.516 C 141.540 225.390,138.152 221.484,139.453 218.094 C 140.357 215.739,146.271 216.356,147.240 218.906 M270.371 218.746 C 271.673 221.178,271.034 222.946,268.422 224.135 C 264.607 225.874,260.625 221.872,262.168 217.851 C 262.937 215.846,269.184 216.528,270.371 218.746 M210.400 244.777 C 210.400 245.205,211.875 250.515,213.677 256.577 C 218.986 274.430,219.904 280.818,217.568 283.645 C 213.457 288.621,198.144 290.568,189.600 287.200 C 184.307 285.114,183.021 285.142,183.344 287.336 C 184.572 295.676,211.395 295.477,220.240 287.063 L 223.431 284.028 222.990 277.814 C 222.748 274.396,222.023 269.980,221.381 268.000 C 220.048 263.895,217.498 255.357,215.587 248.600 C 214.394 244.381,210.400 241.437,210.400 244.777 M160.600 320.017 C 156.477 322.606,156.326 322.975,157.761 326.943 C 158.832 329.905,159.746 330.253,161.208 328.253 C 162.126 326.998,162.540 326.995,167.297 328.206 C 175.469 330.287,192.091 332.275,200.800 332.215 C 208.644 332.160,229.404 330.456,232.800 329.589 C 239.993 327.751,240.822 327.726,241.987 329.303 C 242.713 330.286,243.352 330.525,243.850 330.000 C 244.684 329.118,246.726 323.185,246.280 322.938 C 246.126 322.853,244.491 321.617,242.647 320.192 C 238.966 317.346,237.600 316.970,237.600 318.800 C 237.600 319.460,237.985 320.000,238.456 320.000 C 238.926 320.000,239.196 320.796,239.056 321.768 C 238.676 324.391,233.679 325.573,218.800 326.558 C 196.839 328.013,181.984 327.322,169.891 324.284 L 164.766 322.997 165.272 320.298 C 165.889 317.009,165.433 316.982,160.600 320.017 M178.400 339.809 C 178.400 345.509,216.435 346.639,222.352 341.114 C 224.153 339.433,222.715 338.852,219.293 339.878 C 209.627 342.774,193.919 342.631,180.600 339.526 C 179.331 339.231,178.400 339.350,178.400 339.809 " stroke="none" fill="#222726" fill-rule="evenodd"></path></g></svg>