<?xml version="1.0" standalone="no"?>
<!DOCTYPE svg PUBLIC "-//W3C//DTD SVG 20010904//EN"
 "http://www.w3.org/TR/2001/REC-SVG-20010904/DTD/svg10.dtd">
<svg version="1.0" xmlns="http://www.w3.org/2000/svg"
 width="16.000000pt" height="16.000000pt" viewBox="0 0 16.000000 16.000000"
 preserveAspectRatio="xMidYMid meet">
<metadata>
Created by potrace 1.11, written by Peter Selinger 2001-2013
</metadata>
<g transform="translate(0.000000,16.000000) scale(0.005246,-0.005246)"
fill="#000000" stroke="none">
<path d="M1547 3014 c-3 -3 -27 -8 -54 -11 -75 -7 -97 -10 -113 -15 -8 -3 -42
-11 -75 -17 -33 -7 -64 -13 -70 -15 -59 -16 -100 -29 -132 -43 -21 -9 -42 -17
-48 -18 -11 -1 -107 -47 -115 -55 -3 -3 -18 -12 -34 -20 -35 -18 -65 -41 -123
-96 -23 -23 -45 -39 -47 -37 -2 3 -7 -4 -10 -15 -4 -11 -18 -32 -32 -47 -13
-14 -36 -50 -51 -78 -14 -29 -30 -55 -35 -58 -5 -3 -10 -10 -9 -15 1 -29 -17
-59 -70 -113 -33 -33 -67 -78 -76 -98 -8 -21 -14 -38 -12 -38 2 0 -4 -11 -14
-25 -9 -13 -17 -34 -17 -47 0 -12 -5 -25 -10 -28 -7 -4 -7 -11 -2 -18 5 -7 6
-21 1 -32 -11 -29 -11 -353 1 -360 5 -3 7 -12 4 -19 -3 -7 4 -36 16 -65 11
-29 18 -57 15 -62 -4 -5 -2 -9 4 -9 18 0 0 -28 -22 -35 -12 -4 -25 -7 -30 -6
-4 1 -7 -3 -7 -8 0 -5 -7 -17 -16 -26 -20 -20 -55 -115 -43 -115 6 0 5 -8 -1
-20 -8 -14 -8 -20 0 -20 7 0 8 -6 0 -19 -7 -14 -7 -22 0 -26 8 -5 8 -11 0 -20
-8 -9 -8 -15 0 -20 5 -3 10 -16 10 -28 0 -12 13 -56 29 -97 48 -125 49 -128
53 -163 1 -11 13 -30 25 -43 13 -14 23 -30 23 -37 0 -14 23 -30 93 -67 43 -22
51 -32 69 -80 11 -30 22 -65 25 -78 3 -12 9 -22 14 -22 5 0 9 -9 9 -20 0 -11
5 -20 10 -20 6 0 10 -6 10 -14 0 -8 15 -36 34 -64 19 -27 32 -53 29 -56 -4 -3
-1 -6 5 -6 7 0 12 -7 12 -15 0 -8 6 -15 14 -15 8 0 18 -9 21 -20 6 -17 150
-170 210 -221 46 -40 228 -133 281 -144 51 -10 139 -25 149 -25 6 0 24 1 40 3
17 1 38 -1 48 -6 10 -5 17 -4 17 3 0 7 6 8 19 0 14 -7 21 -6 25 3 5 9 7 9 12
0 4 -9 11 -10 22 -4 10 5 37 11 62 12 25 2 68 11 95 20 54 18 167 69 175 79 3
4 24 18 48 32 23 13 39 28 35 31 -3 4 1 7 10 7 8 0 24 11 35 25 11 13 22 22
24 19 12 -11 228 255 228 281 0 3 7 13 15 22 8 8 13 19 10 24 -4 5 -1 9 4 9 6
0 11 6 11 14 0 8 5 16 11 18 6 2 12 15 12 30 1 14 5 24 8 22 4 -2 10 8 14 24
11 43 47 122 56 123 19 3 25 5 56 22 18 9 45 34 60 54 15 21 31 40 35 43 4 3
10 17 12 30 2 14 5 26 7 28 2 2 2 2 14 47 4 17 12 36 18 42 5 7 7 13 4 13 -3
0 5 25 18 55 14 30 26 73 27 95 2 22 7 40 13 40 5 0 4 5 -2 11 -7 7 -8 21 -3
40 5 17 5 31 -1 34 -5 4 -5 14 1 26 6 10 7 19 2 19 -5 0 -12 12 -15 28 -8 40
-45 82 -86 100 -20 8 -31 17 -24 19 7 2 10 10 7 17 -3 8 2 31 11 52 22 52 27
80 35 204 6 90 22 162 40 180 10 10 9 106 -2 140 -19 62 -68 160 -79 160 -6 0
-9 9 -6 20 3 11 2 20 -3 20 -4 0 -22 34 -40 75 -18 41 -43 86 -55 99 -13 14
-21 27 -18 30 3 2 -4 13 -14 24 -10 10 -40 42 -66 70 -27 29 -53 52 -58 52 -5
0 -23 14 -39 30 -16 17 -36 30 -44 30 -8 0 -17 4 -20 9 -8 12 -132 80 -154 85
-9 2 -34 11 -54 20 -21 9 -52 18 -68 19 -31 4 -77 37 -51 37 7 0 11 9 9 22 -2
19 -15 26 -68 41 -36 9 -79 16 -96 15 -18 -1 -39 3 -47 10 -11 9 -17 10 -22 2
-5 -8 -11 -8 -20 0 -10 8 -19 8 -35 0 -16 -8 -25 -9 -33 -1 -6 6 -16 7 -28 1
-11 -7 -20 -7 -24 0 -7 11 -19 13 -28 4z"/>
</g>
</svg>
